<svg xmlns="http://www.w3.org/2000/svg" version="1.1" xmlns:xlink="http://www.w3.org/1999/xlink" xmlns:svgjs="http://svgjs.dev/svgjs" width="2000" height="489" viewBox="0 0 2000 489"><g transform="matrix(1,0,0,1,-1.2121212121212466,-0.43337745995179944)"><svg viewBox="0 0 396 97" data-background-color="#231239" preserveAspectRatio="xMidYMid meet" height="489" width="2000" xmlns="http://www.w3.org/2000/svg" xmlns:xlink="http://www.w3.org/1999/xlink"><g id="tight-bounds" transform="matrix(1,0,0,1,0.2400000000000091,0.08596649001088963)"><svg viewBox="0 0 395.52 96.82806701997822" height="96.82806701997822" width="395.52"><g><svg viewBox="0 0 511.1499789828829 125.13568067914402" height="96.82806701997822" width="395.52"><g transform="matrix(1,0,0,1,115.62997898288289,19.11855467717008)"><svg viewBox="0 0 395.52 86.89857132480385" height="86.89857132480385" width="395.52"><g id="textblocktransform"><svg viewBox="0 0 395.52 86.89857132480385" height="86.89857132480385" width="395.52" id="textblock"><g><svg viewBox="0 0 395.52 86.89857132480385" height="86.89857132480385" width="395.52"><g transform="matrix(1,0,0,1,0,0)"><svg width="395.52" viewBox="-1.1972183258641933 -27.828820194225273 201.11430957386224 44.18626313739424" height="86.89857132480385" data-palette-color="url(#dd4a8639-122e-495f-bd3c-49ebde36285e)"></svg></g></svg></g></svg></g></svg></g><g><svg viewBox="0 0 90.12880730975648 125.13568067914402" height="125.13568067914402" width="90.12880730975648"><g><svg xmlns="http://www.w3.org/2000/svg" xmlns:xlink="http://www.w3.org/1999/xlink" version="1.1" x="0" y="0" viewBox="11.799999999999997 9.3 81.10000000000001 112.60000000000001" enable-background="new 0 0 108.3 129.2" xml:space="preserve" height="125.13568067914402" width="90.12880730975648" class="icon-icon-0" data-fill-palette-color="accent" id="icon-0"></svg></g></svg></g></svg></g><defs></defs><mask id="5d6d0751-cde7-491b-b671-2e74d3fbaab1"><g id="SvgjsG1382"><svg viewBox="0 0 395.52 96.82806701997822" height="96.82806701997822" width="395.52"><g><svg viewBox="0 0 511.1499789828829 125.13568067914402" height="96.82806701997822" width="395.52"><g transform="matrix(1,0,0,1,115.62997898288289,19.11855467717008)"><svg viewBox="0 0 395.52 86.89857132480385" height="86.89857132480385" width="395.52"><g id="SvgjsG1381"><svg viewBox="0 0 395.52 86.89857132480385" height="86.89857132480385" width="395.52" id="SvgjsSvg1380"><g><svg viewBox="0 0 395.52 86.89857132480385" height="86.89857132480385" width="395.52"><g transform="matrix(1,0,0,1,0,0)"><svg width="395.52" viewBox="-1.1972183258641933 -27.828820194225273 201.11430957386224 44.18626313739424" height="86.89857132480385" data-palette-color="url(#dd4a8639-122e-495f-bd3c-49ebde36285e)"><path d="M10.781 15.3v0l-5.459 1.053c-0.124 0.024-0.202-0.043-0.232-0.2v0l-6.281-33.11c-0.024-0.124 0.026-0.199 0.15-0.222v0l5.872-1.132c0.131-0.025 0.254 0.015 0.37 0.122v0l5.624 5.505 3.144-7.195c0.074-0.143 0.18-0.228 0.318-0.255v0l5.901-1.138c0.144-0.028 0.228 0.021 0.252 0.145v0l6.478 33.072c0.03 0.157-0.02 0.248-0.151 0.273v0l-5.45 1.051c-0.124 0.024-0.202-0.043-0.232-0.2v0l-4.787-24.568-3.641 8.32-6.424-6.379 4.689 24.587c0.03 0.157-0.017 0.248-0.141 0.271zM39.188 10.996v0c-1.724 0.239-3.376 0.017-4.959-0.666v0c-1.562-0.685-2.885-1.707-3.968-3.064-1.077-1.358-1.738-2.922-1.983-4.692v0l-2.095-15.409c-0.25-1.803-0.039-3.484 0.633-5.044v0c0.65-1.571 1.645-2.897 2.982-3.977 1.331-1.08 2.852-1.738 4.562-1.975v0c1.77-0.245 3.418-0.03 4.946 0.647v0c1.546 0.667 2.85 1.675 3.912 3.021 1.068 1.346 1.726 2.911 1.973 4.694v0l2.175 15.397c0.245 1.77 0.044 3.45-0.604 5.041v0c-0.666 1.607-1.657 2.952-2.974 4.036-1.31 1.083-2.844 1.747-4.6 1.991zM38.375 5.132v0c0.977-0.135 1.774-0.653 2.389-1.553 0.622-0.901 0.865-1.846 0.728-2.837v0l-2.185-15.396c-0.149-1.076-0.615-1.937-1.398-2.582-0.784-0.652-1.697-0.906-2.74-0.761v0c-0.997 0.138-1.802 0.62-2.414 1.445-0.612 0.832-0.841 1.799-0.689 2.902v0l2.135 15.403c0.146 1.057 0.629 1.918 1.449 2.585 0.819 0.667 1.728 0.932 2.725 0.794zM61.972 8.007v0l-5.915 0.543c-0.146 0.013-0.233-0.059-0.261-0.217v0l-9.835-32.938c-0.045-0.123 0.012-0.192 0.171-0.207v0l5.537-0.508c0.126-0.012 0.212 0.044 0.256 0.167v0l6.06 22.008 1.857-22.736c0.022-0.129 0.095-0.2 0.222-0.211v0l5.457-0.501c0.179-0.016 0.251 0.041 0.216 0.171v0l-3.548 34.168c-0.005 0.161-0.078 0.248-0.217 0.261zM76.98 6.885v0l-5.55 0.341c-0.16 0.01-0.244-0.065-0.254-0.225v0l-2.016-33.639c-0.008-0.126 0.052-0.194 0.178-0.202v0l5.5-0.337c0.126-0.008 0.194 0.052 0.201 0.178v0l2.116 33.633c0.01 0.16-0.049 0.243-0.175 0.251zM96.961 6.286v0l-15.854 0.454c-0.127 0.004-0.192-0.075-0.196-0.235v0l-0.915-33.687c-0.004-0.127 0.058-0.192 0.185-0.196v0l15.753-0.451c0.127-0.004 0.192 0.075 0.197 0.235v0l0.157 5.488c0.004 0.127-0.058 0.192-0.184 0.195v0l-10.056 0.288 0.219 7.657 10.056-0.288c0.127-0.004 0.192 0.058 0.195 0.184v0l0.209 5.557c0.004 0.127-0.058 0.192-0.184 0.195v0l-10.106 0.289 0.245 8.567 10.106-0.29c0.127-0.004 0.192 0.075 0.197 0.235v0l0.16 5.608c0.004 0.127-0.058 0.192-0.184 0.195zM110.885-7.767v0l-9.48-0.08c-0.16-0.001-0.239-0.065-0.238-0.192v0l0.045-5.34c0.001-0.127 0.082-0.189 0.241-0.188v0l9.48 0.08c0.16 0.001 0.239 0.065 0.238 0.192v0l-0.045 5.34c-0.001 0.127-0.082 0.189-0.241 0.188zM131.983 7.428v0l-18.278-0.902c-0.16-0.008-0.236-0.092-0.228-0.252v0l0.313-5.331 13.138-22.35-11.357-0.56c-0.146-0.007-0.217-0.074-0.21-0.201v0l0.254-5.143c0.008-0.16 0.085-0.236 0.231-0.229v0l17.719 0.874c0.16 0.008 0.236 0.092 0.228 0.252v0l-0.261 5.283-13.062 22.233 11.796 0.583c0.127 0.006 0.185 0.099 0.176 0.279v0l-0.208 5.236c-0.008 0.16-0.092 0.236-0.251 0.228zM143.53 8.974v0c-1.732-0.161-3.291-0.755-4.675-1.781v0c-1.364-1.024-2.418-2.321-3.163-3.89-0.738-1.569-1.024-3.242-0.858-5.021v0l1.482-15.48c0.169-1.812 0.759-3.401 1.77-4.766v0c0.992-1.381 2.263-2.444 3.812-3.19 1.543-0.747 3.173-1.04 4.893-0.88v0c1.779 0.166 3.335 0.752 4.667 1.76v0c1.353 1.003 2.392 2.282 3.117 3.836 0.732 1.555 1.015 3.228 0.848 5.02v0l-1.402 15.487c-0.166 1.779-0.746 3.369-1.74 4.769v0c-1.015 1.412-2.288 2.495-3.818 3.25-1.523 0.755-3.168 1.051-4.933 0.886zM144.079 3.08v0c0.982 0.092 1.876-0.23 2.681-0.966 0.812-0.735 1.264-1.6 1.357-2.595v0l1.392-15.488c0.101-1.082-0.156-2.027-0.771-2.833-0.614-0.814-1.445-1.27-2.494-1.368v0c-1.002-0.093-1.896 0.192-2.68 0.855-0.786 0.67-1.23 1.559-1.334 2.668v0l-1.442 15.483c-0.099 1.062 0.174 2.011 0.82 2.849 0.645 0.837 1.469 1.302 2.471 1.395zM161.307 10.545v0l-4.862-0.683c-0.251-0.035-0.361-0.165-0.329-0.389v0l4.599-33.092c0.035-0.251 0.178-0.359 0.429-0.324v0l4.387 0.616 5.52 20.296 2.399-18.799c0.035-0.251 0.195-0.356 0.478-0.317v0l4.813 0.676c0.191 0.027 0.27 0.166 0.234 0.417v0l-4.605 33.141c-0.027 0.191-0.12 0.276-0.278 0.254v0l-4.268-0.599-5.905-19.067-2.103 17.558c-0.035 0.251-0.205 0.355-0.509 0.312zM193.521 15.99v0l-15.588-2.925c-0.124-0.023-0.172-0.114-0.142-0.271v0l6.264-33.112c0.023-0.124 0.097-0.175 0.221-0.152v0l15.49 2.906c0.124 0.023 0.172 0.114 0.143 0.271v0l-1.013 5.396c-0.023 0.124-0.097 0.175-0.222 0.152v0l-9.887-1.855-1.413 7.528 9.888 1.855c0.124 0.023 0.175 0.097 0.152 0.222v0l-0.977 5.474c-0.023 0.124-0.097 0.175-0.221 0.152v0l-9.937-1.865-1.58 8.423 9.936 1.865c0.124 0.023 0.172 0.114 0.143 0.271v0l-1.035 5.513c-0.023 0.124-0.097 0.175-0.222 0.152z" opacity="1" transform="matrix(1,0,0,1,0,0)" fill="white" class="wordmark-text-0" id="SvgjsPath1379"></path></svg></g></svg></g></svg></g></svg></g><g><svg viewBox="0 0 90.12880730975648 125.13568067914402" height="125.13568067914402" width="90.12880730975648"><g><svg xmlns="http://www.w3.org/2000/svg" xmlns:xlink="http://www.w3.org/1999/xlink" version="1.1" x="0" y="0" viewBox="11.799999999999997 9.3 81.10000000000001 112.60000000000001" enable-background="new 0 0 108.3 129.2" xml:space="preserve" height="125.13568067914402" width="90.12880730975648" class="icon-icon-0" data-fill-palette-color="accent" id="SvgjsSvg1378"><g fill="black"><g fill="black"><g fill="black"><g fill="black"><path fill="black" d="M71 121.4c-4 0-7.2-1.5-8.9-2.9l-0.3-0.3L50.2 106l3.8-3.6 11.4 12.1c0.9 0.6 6.3 4 12.9-1 2-1.5 3.1-3.2 3.3-5 0.3-3.2-2.1-6.1-2.2-6.1l-13.6-14 3.8-3.7 13.6 14.1c0.2 0.3 4.1 4.7 3.5 10.2-0.3 3.4-2.1 6.3-5.4 8.7C77.8 120.5 74.2 121.4 71 121.4z"></path></g></g></g><g fill="black"><g fill="black"><g fill="black"><path fill="black" d="M72 109.4c-0.5 0-0.9-0.2-1.3-0.5l-12.4-13c-0.7-0.7-0.6-1.8 0.1-2.5 0.7-0.7 1.8-0.6 2.5 0.1l12.4 13c0.7 0.7 0.6 1.8-0.1 2.5C72.8 109.2 72.4 109.4 72 109.4z"></path></g></g></g><g fill="black"><g fill="black"><g fill="black"><path fill="black" d="M30.1 109.7c-0.4 0-0.9-0.2-1.2-0.5-0.7-0.7-0.7-1.8 0-2.5L67.8 67c1.8-1.6 6.5-6 7.7-7.8 1.7-2.5 1.8-6 1.8-9.4C77.2 36.1 66.1 25 52.4 25S27.6 36.1 27.6 49.8c0 5.3 1 9.2 3 12 3 4.1 14.2 14.9 14.3 15 0.7 0.7 0.7 1.8 0 2.5-0.7 0.7-1.8 0.7-2.5 0C42 78.8 31 68.2 27.8 63.9c-2.5-3.4-3.7-8-3.7-14 0-15.6 12.7-28.3 28.3-28.3s28.3 12.7 28.3 28.3c0 3.9-0.2 8-2.4 11.3-1.6 2.5-7.5 7.8-8.2 8.4l-38.8 39.6C31 109.5 30.5 109.7 30.1 109.7z"></path></g></g></g><g fill="black"><g fill="black"><g fill="black"><path fill="black" d="M30.6 121.9c-3 0-6.2-0.9-9.5-3.4-3.2-2.5-5.1-5.4-5.5-8.8-0.7-5.5 2.8-10 2.9-10.2l0.2-0.3 13.1-12.7-5-5.3c-9.5-7.7-15-19.2-15-31.5C11.9 27.5 30 9.3 52.4 9.3s40.5 18.2 40.5 40.5c0 13.6-5.3 25-14.9 32.2l-36.6 35.7C39.3 119.7 35.3 121.9 30.6 121.9zM22.6 102.9c-0.4 0.6-2.1 3.3-1.7 6.2 0.3 1.9 1.4 3.7 3.5 5.3 7 5.3 13.2-0.2 13.4-0.4l37-36c8.4-6.2 12.9-15.9 12.9-28.1 0-19.4-15.8-35.3-35.3-35.3S17.1 30.4 17.1 49.8c0 10.7 4.8 20.8 13.2 27.5l0.3 0.2 5.1 5.4 12.9-12.5-10.6-11c-1.9-2.9-3-6.2-3-9.7 0-9.5 7.8-17.3 17.3-17.3s17.3 7.8 17.3 17.3c0 3.5-1 6.8-3 9.7l-0.3 0.4-10.6 11L22.6 102.9zM42.3 56.4l10.1 10.4 10.1-10.4c1.3-1.9 1.9-4.2 1.9-6.5 0-6.6-5.4-12-12-12s-12 5.4-12 12C40.4 52.2 41 54.4 42.3 56.4z"></path></g></g></g></g></svg></g></svg></g></svg></g><defs><mask></mask></defs></svg><rect width="395.52" height="96.82806701997822" fill="black" stroke="none" visibility="hidden"></rect></g></mask><linearGradient x1="0" x2="1" y1="0.5" y2="0.5" id="dd4a8639-122e-495f-bd3c-49ebde36285e"><stop stop-color="#ffa62e" offset="0"></stop><stop stop-color="#f71b3d" offset="1"></stop></linearGradient><rect width="395.52" height="96.82806701997822" fill="url(#dd4a8639-122e-495f-bd3c-49ebde36285e)" mask="url(#5d6d0751-cde7-491b-b671-2e74d3fbaab1)" data-fill-palette-color="primary"></rect><mask id="6d00f726-7aec-4eda-897a-70b04e174b60"><g id="SvgjsG1391"><svg viewBox="0 0 395.52 96.82806701997822" height="96.82806701997822" width="395.52"><g><svg viewBox="0 0 511.1499789828829 125.13568067914402" height="96.82806701997822" width="395.52"><g transform="matrix(1,0,0,1,115.62997898288289,19.11855467717008)"><svg viewBox="0 0 395.52 86.89857132480385" height="86.89857132480385" width="395.52"><g id="SvgjsG1390"><svg viewBox="0 0 395.52 86.89857132480385" height="86.89857132480385" width="395.52" id="SvgjsSvg1389"><g><svg viewBox="0 0 395.52 86.89857132480385" height="86.89857132480385" width="395.52"><g transform="matrix(1,0,0,1,0,0)"><svg width="395.52" viewBox="-1.1972183258641933 -27.828820194225273 201.11430957386224 44.18626313739424" height="86.89857132480385" data-palette-color="url(#dd4a8639-122e-495f-bd3c-49ebde36285e)"></svg></g></svg></g></svg></g></svg></g><g><svg viewBox="0 0 90.12880730975648 125.13568067914402" height="125.13568067914402" width="90.12880730975648"><g><svg xmlns="http://www.w3.org/2000/svg" xmlns:xlink="http://www.w3.org/1999/xlink" version="1.1" x="0" y="0" viewBox="11.799999999999997 9.3 81.10000000000001 112.60000000000001" enable-background="new 0 0 108.3 129.2" xml:space="preserve" height="125.13568067914402" width="90.12880730975648" class="icon-icon-0" data-fill-palette-color="accent" id="SvgjsSvg1388"><g fill="white"><g fill="white"><g fill="white"><g fill="white"><path fill="white" d="M71 121.4c-4 0-7.2-1.5-8.9-2.9l-0.3-0.3L50.2 106l3.8-3.6 11.4 12.1c0.9 0.6 6.3 4 12.9-1 2-1.5 3.1-3.2 3.3-5 0.3-3.2-2.1-6.1-2.2-6.1l-13.6-14 3.8-3.7 13.6 14.1c0.2 0.3 4.1 4.7 3.5 10.2-0.3 3.4-2.1 6.3-5.4 8.7C77.8 120.5 74.2 121.4 71 121.4z"></path></g></g></g><g fill="white"><g fill="white"><g fill="white"><path fill="white" d="M72 109.4c-0.5 0-0.9-0.2-1.3-0.5l-12.4-13c-0.7-0.7-0.6-1.8 0.1-2.5 0.7-0.7 1.8-0.6 2.5 0.1l12.4 13c0.7 0.7 0.6 1.8-0.1 2.5C72.8 109.2 72.4 109.4 72 109.4z"></path></g></g></g><g fill="white"><g fill="white"><g fill="white"><path fill="white" d="M30.1 109.7c-0.4 0-0.9-0.2-1.2-0.5-0.7-0.7-0.7-1.8 0-2.5L67.8 67c1.8-1.6 6.5-6 7.7-7.8 1.7-2.5 1.8-6 1.8-9.4C77.2 36.1 66.1 25 52.4 25S27.6 36.1 27.6 49.8c0 5.3 1 9.2 3 12 3 4.1 14.2 14.9 14.3 15 0.7 0.7 0.7 1.8 0 2.5-0.7 0.7-1.8 0.7-2.5 0C42 78.8 31 68.2 27.8 63.9c-2.5-3.4-3.7-8-3.7-14 0-15.6 12.7-28.3 28.3-28.3s28.3 12.7 28.3 28.3c0 3.9-0.2 8-2.4 11.3-1.6 2.5-7.5 7.8-8.2 8.4l-38.8 39.6C31 109.5 30.5 109.7 30.1 109.7z"></path></g></g></g><g fill="white"><g fill="white"><g fill="white"><path fill="white" d="M30.6 121.9c-3 0-6.2-0.9-9.5-3.4-3.2-2.5-5.1-5.4-5.5-8.8-0.7-5.5 2.8-10 2.9-10.2l0.2-0.3 13.1-12.7-5-5.3c-9.5-7.7-15-19.2-15-31.5C11.9 27.5 30 9.3 52.4 9.3s40.5 18.2 40.5 40.5c0 13.6-5.3 25-14.9 32.2l-36.6 35.7C39.3 119.7 35.3 121.9 30.6 121.9zM22.6 102.9c-0.4 0.6-2.1 3.3-1.7 6.2 0.3 1.9 1.4 3.7 3.5 5.3 7 5.3 13.2-0.2 13.4-0.4l37-36c8.4-6.2 12.9-15.9 12.9-28.1 0-19.4-15.8-35.3-35.3-35.3S17.1 30.4 17.1 49.8c0 10.7 4.8 20.8 13.2 27.5l0.3 0.2 5.1 5.4 12.9-12.5-10.6-11c-1.9-2.9-3-6.2-3-9.7 0-9.5 7.8-17.3 17.3-17.3s17.3 7.8 17.3 17.3c0 3.5-1 6.8-3 9.7l-0.3 0.4-10.6 11L22.6 102.9zM42.3 56.4l10.1 10.4 10.1-10.4c1.3-1.9 1.9-4.2 1.9-6.5 0-6.6-5.4-12-12-12s-12 5.4-12 12C40.4 52.2 41 54.4 42.3 56.4z"></path></g></g></g></g></svg></g></svg></g></svg></g><defs><mask></mask></defs><mask><g id="SvgjsG1387"><svg viewBox="0 0 395.52 96.82806701997822" height="96.82806701997822" width="395.52"><g><svg viewBox="0 0 511.1499789828829 125.13568067914402" height="96.82806701997822" width="395.52"><g transform="matrix(1,0,0,1,115.62997898288289,19.11855467717008)"><svg viewBox="0 0 395.52 86.89857132480385" height="86.89857132480385" width="395.52"><g id="SvgjsG1386"><svg viewBox="0 0 395.52 86.89857132480385" height="86.89857132480385" width="395.52" id="SvgjsSvg1385"><g><svg viewBox="0 0 395.52 86.89857132480385" height="86.89857132480385" width="395.52"><g transform="matrix(1,0,0,1,0,0)"><svg width="395.52" viewBox="-1.1972183258641933 -27.828820194225273 201.11430957386224 44.18626313739424" height="86.89857132480385" data-palette-color="url(#dd4a8639-122e-495f-bd3c-49ebde36285e)"><path d="M10.781 15.3v0l-5.459 1.053c-0.124 0.024-0.202-0.043-0.232-0.2v0l-6.281-33.11c-0.024-0.124 0.026-0.199 0.15-0.222v0l5.872-1.132c0.131-0.025 0.254 0.015 0.37 0.122v0l5.624 5.505 3.144-7.195c0.074-0.143 0.18-0.228 0.318-0.255v0l5.901-1.138c0.144-0.028 0.228 0.021 0.252 0.145v0l6.478 33.072c0.03 0.157-0.02 0.248-0.151 0.273v0l-5.45 1.051c-0.124 0.024-0.202-0.043-0.232-0.2v0l-4.787-24.568-3.641 8.32-6.424-6.379 4.689 24.587c0.03 0.157-0.017 0.248-0.141 0.271zM39.188 10.996v0c-1.724 0.239-3.376 0.017-4.959-0.666v0c-1.562-0.685-2.885-1.707-3.968-3.064-1.077-1.358-1.738-2.922-1.983-4.692v0l-2.095-15.409c-0.25-1.803-0.039-3.484 0.633-5.044v0c0.65-1.571 1.645-2.897 2.982-3.977 1.331-1.08 2.852-1.738 4.562-1.975v0c1.77-0.245 3.418-0.03 4.946 0.647v0c1.546 0.667 2.85 1.675 3.912 3.021 1.068 1.346 1.726 2.911 1.973 4.694v0l2.175 15.397c0.245 1.77 0.044 3.45-0.604 5.041v0c-0.666 1.607-1.657 2.952-2.974 4.036-1.31 1.083-2.844 1.747-4.6 1.991zM38.375 5.132v0c0.977-0.135 1.774-0.653 2.389-1.553 0.622-0.901 0.865-1.846 0.728-2.837v0l-2.185-15.396c-0.149-1.076-0.615-1.937-1.398-2.582-0.784-0.652-1.697-0.906-2.74-0.761v0c-0.997 0.138-1.802 0.62-2.414 1.445-0.612 0.832-0.841 1.799-0.689 2.902v0l2.135 15.403c0.146 1.057 0.629 1.918 1.449 2.585 0.819 0.667 1.728 0.932 2.725 0.794zM61.972 8.007v0l-5.915 0.543c-0.146 0.013-0.233-0.059-0.261-0.217v0l-9.835-32.938c-0.045-0.123 0.012-0.192 0.171-0.207v0l5.537-0.508c0.126-0.012 0.212 0.044 0.256 0.167v0l6.06 22.008 1.857-22.736c0.022-0.129 0.095-0.2 0.222-0.211v0l5.457-0.501c0.179-0.016 0.251 0.041 0.216 0.171v0l-3.548 34.168c-0.005 0.161-0.078 0.248-0.217 0.261zM76.98 6.885v0l-5.55 0.341c-0.16 0.01-0.244-0.065-0.254-0.225v0l-2.016-33.639c-0.008-0.126 0.052-0.194 0.178-0.202v0l5.5-0.337c0.126-0.008 0.194 0.052 0.201 0.178v0l2.116 33.633c0.01 0.16-0.049 0.243-0.175 0.251zM96.961 6.286v0l-15.854 0.454c-0.127 0.004-0.192-0.075-0.196-0.235v0l-0.915-33.687c-0.004-0.127 0.058-0.192 0.185-0.196v0l15.753-0.451c0.127-0.004 0.192 0.075 0.197 0.235v0l0.157 5.488c0.004 0.127-0.058 0.192-0.184 0.195v0l-10.056 0.288 0.219 7.657 10.056-0.288c0.127-0.004 0.192 0.058 0.195 0.184v0l0.209 5.557c0.004 0.127-0.058 0.192-0.184 0.195v0l-10.106 0.289 0.245 8.567 10.106-0.29c0.127-0.004 0.192 0.075 0.197 0.235v0l0.16 5.608c0.004 0.127-0.058 0.192-0.184 0.195zM110.885-7.767v0l-9.48-0.08c-0.16-0.001-0.239-0.065-0.238-0.192v0l0.045-5.34c0.001-0.127 0.082-0.189 0.241-0.188v0l9.48 0.08c0.16 0.001 0.239 0.065 0.238 0.192v0l-0.045 5.34c-0.001 0.127-0.082 0.189-0.241 0.188zM131.983 7.428v0l-18.278-0.902c-0.16-0.008-0.236-0.092-0.228-0.252v0l0.313-5.331 13.138-22.35-11.357-0.56c-0.146-0.007-0.217-0.074-0.21-0.201v0l0.254-5.143c0.008-0.16 0.085-0.236 0.231-0.229v0l17.719 0.874c0.16 0.008 0.236 0.092 0.228 0.252v0l-0.261 5.283-13.062 22.233 11.796 0.583c0.127 0.006 0.185 0.099 0.176 0.279v0l-0.208 5.236c-0.008 0.16-0.092 0.236-0.251 0.228zM143.53 8.974v0c-1.732-0.161-3.291-0.755-4.675-1.781v0c-1.364-1.024-2.418-2.321-3.163-3.89-0.738-1.569-1.024-3.242-0.858-5.021v0l1.482-15.48c0.169-1.812 0.759-3.401 1.77-4.766v0c0.992-1.381 2.263-2.444 3.812-3.19 1.543-0.747 3.173-1.04 4.893-0.88v0c1.779 0.166 3.335 0.752 4.667 1.76v0c1.353 1.003 2.392 2.282 3.117 3.836 0.732 1.555 1.015 3.228 0.848 5.02v0l-1.402 15.487c-0.166 1.779-0.746 3.369-1.74 4.769v0c-1.015 1.412-2.288 2.495-3.818 3.25-1.523 0.755-3.168 1.051-4.933 0.886zM144.079 3.08v0c0.982 0.092 1.876-0.23 2.681-0.966 0.812-0.735 1.264-1.6 1.357-2.595v0l1.392-15.488c0.101-1.082-0.156-2.027-0.771-2.833-0.614-0.814-1.445-1.27-2.494-1.368v0c-1.002-0.093-1.896 0.192-2.68 0.855-0.786 0.67-1.23 1.559-1.334 2.668v0l-1.442 15.483c-0.099 1.062 0.174 2.011 0.82 2.849 0.645 0.837 1.469 1.302 2.471 1.395zM161.307 10.545v0l-4.862-0.683c-0.251-0.035-0.361-0.165-0.329-0.389v0l4.599-33.092c0.035-0.251 0.178-0.359 0.429-0.324v0l4.387 0.616 5.52 20.296 2.399-18.799c0.035-0.251 0.195-0.356 0.478-0.317v0l4.813 0.676c0.191 0.027 0.27 0.166 0.234 0.417v0l-4.605 33.141c-0.027 0.191-0.12 0.276-0.278 0.254v0l-4.268-0.599-5.905-19.067-2.103 17.558c-0.035 0.251-0.205 0.355-0.509 0.312zM193.521 15.99v0l-15.588-2.925c-0.124-0.023-0.172-0.114-0.142-0.271v0l6.264-33.112c0.023-0.124 0.097-0.175 0.221-0.152v0l15.49 2.906c0.124 0.023 0.172 0.114 0.143 0.271v0l-1.013 5.396c-0.023 0.124-0.097 0.175-0.222 0.152v0l-9.887-1.855-1.413 7.528 9.888 1.855c0.124 0.023 0.175 0.097 0.152 0.222v0l-0.977 5.474c-0.023 0.124-0.097 0.175-0.221 0.152v0l-9.937-1.865-1.58 8.423 9.936 1.865c0.124 0.023 0.172 0.114 0.143 0.271v0l-1.035 5.513c-0.023 0.124-0.097 0.175-0.222 0.152z" opacity="1" transform="matrix(1,0,0,1,0,0)" fill="black" class="wordmark-text-0" id="SvgjsPath1384"></path></svg></g></svg></g></svg></g></svg></g><g><svg viewBox="0 0 90.12880730975648 125.13568067914402" height="125.13568067914402" width="90.12880730975648"><g><svg xmlns="http://www.w3.org/2000/svg" xmlns:xlink="http://www.w3.org/1999/xlink" version="1.1" x="0" y="0" viewBox="11.799999999999997 9.3 81.10000000000001 112.60000000000001" enable-background="new 0 0 108.3 129.2" xml:space="preserve" height="125.13568067914402" width="90.12880730975648" class="icon-icon-0" data-fill-palette-color="accent" id="SvgjsSvg1383"><g fill="black"><g fill="black"><g fill="black"><g fill="black"><path fill="black" d="M71 121.4c-4 0-7.2-1.5-8.9-2.9l-0.3-0.3L50.2 106l3.8-3.6 11.4 12.1c0.9 0.6 6.3 4 12.9-1 2-1.5 3.1-3.2 3.3-5 0.3-3.2-2.1-6.1-2.2-6.1l-13.6-14 3.8-3.7 13.6 14.1c0.2 0.3 4.1 4.7 3.5 10.2-0.3 3.4-2.1 6.3-5.4 8.7C77.8 120.5 74.2 121.4 71 121.4z"></path></g></g></g><g fill="black"><g fill="black"><g fill="black"><path fill="black" d="M72 109.4c-0.5 0-0.9-0.2-1.3-0.5l-12.4-13c-0.7-0.7-0.6-1.8 0.1-2.5 0.7-0.7 1.8-0.6 2.5 0.1l12.4 13c0.7 0.7 0.6 1.8-0.1 2.5C72.8 109.2 72.4 109.4 72 109.4z"></path></g></g></g><g fill="black"><g fill="black"><g fill="black"><path fill="black" d="M30.1 109.7c-0.4 0-0.9-0.2-1.2-0.5-0.7-0.7-0.7-1.8 0-2.5L67.8 67c1.8-1.6 6.5-6 7.7-7.8 1.7-2.5 1.8-6 1.8-9.4C77.2 36.1 66.1 25 52.4 25S27.6 36.1 27.6 49.8c0 5.3 1 9.2 3 12 3 4.1 14.2 14.9 14.3 15 0.7 0.7 0.7 1.8 0 2.5-0.7 0.7-1.8 0.7-2.5 0C42 78.8 31 68.2 27.8 63.9c-2.5-3.4-3.7-8-3.7-14 0-15.6 12.7-28.3 28.3-28.3s28.3 12.7 28.3 28.3c0 3.9-0.2 8-2.4 11.3-1.6 2.5-7.5 7.8-8.2 8.4l-38.8 39.6C31 109.5 30.5 109.7 30.1 109.7z"></path></g></g></g><g fill="black"><g fill="black"><g fill="black"><path fill="black" d="M30.6 121.9c-3 0-6.2-0.9-9.5-3.4-3.2-2.5-5.1-5.4-5.5-8.8-0.7-5.5 2.8-10 2.9-10.2l0.2-0.3 13.1-12.7-5-5.3c-9.5-7.7-15-19.2-15-31.5C11.9 27.5 30 9.3 52.4 9.3s40.5 18.2 40.5 40.5c0 13.6-5.3 25-14.9 32.2l-36.6 35.7C39.3 119.7 35.3 121.9 30.6 121.9zM22.6 102.9c-0.4 0.6-2.1 3.3-1.7 6.2 0.3 1.9 1.4 3.7 3.5 5.3 7 5.3 13.2-0.2 13.4-0.4l37-36c8.4-6.2 12.9-15.9 12.9-28.1 0-19.4-15.8-35.3-35.3-35.3S17.1 30.4 17.1 49.8c0 10.7 4.8 20.8 13.2 27.5l0.3 0.2 5.1 5.4 12.9-12.5-10.6-11c-1.9-2.9-3-6.2-3-9.7 0-9.5 7.8-17.3 17.3-17.3s17.3 7.8 17.3 17.3c0 3.5-1 6.8-3 9.7l-0.3 0.4-10.6 11L22.6 102.9zM42.3 56.4l10.1 10.4 10.1-10.4c1.3-1.9 1.9-4.2 1.9-6.5 0-6.6-5.4-12-12-12s-12 5.4-12 12C40.4 52.2 41 54.4 42.3 56.4z"></path></g></g></g></g></svg></g></svg></g></svg></g><defs><mask></mask></defs></svg><rect width="395.52" height="96.82806701997822" fill="black" stroke="none" visibility="hidden"></rect></g></mask></svg><rect width="395.52" height="96.82806701997822" fill="black" stroke="none" visibility="hidden"></rect></g></mask><linearGradient x1="0" x2="1" y1="0.5" y2="0.5" id="ecc9dde6-8184-4cd3-8960-a9b211a93f5f"><stop stop-color="#ffa62e" offset="0"></stop><stop stop-color="#f71b3d" offset="1"></stop></linearGradient><rect width="395.52" height="96.82806701997822" fill="url(#ecc9dde6-8184-4cd3-8960-a9b211a93f5f)" mask="url(#6d00f726-7aec-4eda-897a-70b04e174b60)" data-fill-palette-color="accent"></rect></svg><rect width="395.52" height="96.82806701997822" fill="none" stroke="none" visibility="hidden"></rect></g></svg></g></svg>